# xmcd
# 
# Track frame offsets:
#     150
#     30865
#     46676
#     70365
#     94548
#     115589
#     136901
#     159309
#     172829
#     187837
# 
# Disc length: 3389
# 
# Revision: 4
# Processed by: cddbd v1.5.2PL0 Copyright (c) Steve Scherf et al.
# Submitted via: fre:ac v1.0.31
# 
DISCID=670d3b0a
DTITLE=Nick Cave and The Bad Seeds - Nocturama
DYEAR=2003
DGENRE=Rock/Pop
TTITLE0=Wonderful Life
TTITLE1=He Wants You
TTITLE2=Right Out Of Your Hand
TTITLE3=Bring It On
TTITLE4=Dead Man In My Bed
TTITLE5=Still In Love
TTITLE6=There Is A Town
TTITLE7=Rock Of Gibraltar
TTITLE8=She Passed By My Window
TTITLE9=Babe, I'm On Fire
EXTD=YEAR: 2003 ID3G: 0
EXTT0=
EXTT1=
EXTT2=
EXTT3=
EXTT4=
EXTT5=
EXTT6=
EXTT7=
EXTT8=
EXTT9=
PLAYORDER=
